<?xml version="1.0" standalone="no"?>
<!DOCTYPE svg PUBLIC "-//W3C//DTD SVG 1.1//EN" "http://www.w3.org/Graphics/SVG/1.1/DTD/svg11.dtd" >
<!--
2013-9-30: Created.
-->
<svg>
<metadata>
Created by iconfont
</metadata>
<defs>

<font id="iconfont" horiz-adv-x="1024" >
  <font-face
    font-family="iconfont"
    font-weight="500"
    font-stretch="normal"
    units-per-em="1024"
    ascent="896"
    descent="-128"
  />
    <missing-glyph />
    
    <glyph glyph-name="wuxianwangluo" unicode="&#58988;" d="M953.925015 600.561267C835.951113 718.535169 679.467129 783.503856 513.297552 783.503856c-166.168554 0-322.652538-64.969711-440.625416-182.942589-8.110725-8.110725-8.110725-21.261233 0-29.372981 8.113795-8.108678 21.262256-8.110725 29.372981 0 110.12719 110.128213 256.180614 170.777525 411.253458 170.777525 155.074891 0 301.126268-60.649312 411.254481-170.777525 4.056386-4.054339 9.370415-6.082532 14.686491-6.082532 5.316076 0 10.630105 2.028193 14.686491 6.082532C962.03574 579.300035 962.03574 592.450543 953.925015 600.561267zM514.596128 592.605062c-118.081349 0-231.487212-50.989301-327.954287-147.4574-8.109702-8.110725-8.109702-21.261233 0-29.372981 8.110725-8.108678 21.261233-8.108678 29.372981 0 88.5078 88.508823 191.756325 135.291312 298.582329 135.291312 106.828051 0 210.075553-46.782489 298.583352-135.291312 4.056386-4.054339 9.370415-6.082532 14.686491-6.082532 5.314029 0 10.630105 2.028193 14.686491 6.082532 8.110725 8.110725 8.110725 21.261233 0 29.372981C746.083339 541.615761 632.680547 592.605062 514.596128 592.605062zM514.596128 393.590426c-73.113181 0-144.865365-33.103956-207.494775-95.735411-8.109702-8.110725-8.109702-21.261233 0-29.372981 8.110725-8.108678 21.261233-8.108678 29.372981 0 54.670134 54.67218 116.263957 83.570347 178.122817 83.570347s123.452683-28.898167 178.12384-83.570347c4.056386-4.054339 9.370415-6.082532 14.686491-6.082532 5.316076 0 10.630105 2.028193 14.686491 6.082532 8.110725 8.110725 8.110725 21.261233 0 29.372981C659.46047 360.48647 587.710332 393.590426 514.596128 393.590426zM513.557472 192.377728c-54.492078 0-98.823749-44.332694-98.823749-98.824773s44.331671-98.824773 98.823749-98.824773 98.824773 44.332694 98.824773 98.824773S568.04955 192.377728 513.557472 192.377728zM513.557472 36.267251c-31.587416 0-57.286728 25.699312-57.286728 57.286728s25.699312 57.286728 57.286728 57.286728 57.286728-25.699312 57.286728-57.286728S545.144888 36.267251 513.557472 36.267251z"  horiz-adv-x="1024" />

    
    <glyph glyph-name="menchuangmenchuangwujinanzhuang" unicode="&#58891;" d="M745.610572 820.358229l-496.221642 0c-28.741601 0-51.259454-25.084305-51.259454-57.107649l0-789.362029 74.170257 0 0 772.299421 445.333648 0-331.506183-29.153994 0-766.881015 336.575642 27.442002 0-3.706415 74.170257 0L796.873096 763.25058C796.875143 795.274948 774.35729 820.358229 745.610572 820.358229zM428.767344 362.613924c-11.995195 0-21.719674 9.724479-21.719674 21.719674 0 11.995195 9.724479 21.719674 21.719674 21.719674 11.995195 0 21.719674-9.724479 21.719674-21.719674C450.487018 372.338403 440.763562 362.613924 428.767344 362.613924z"  horiz-adv-x="1024" />

    
    <glyph glyph-name="tingchewei" unicode="&#58980;" d="M512 773.12c-225.8944 0-409.6-183.7056-409.6-409.6s183.7056-409.6 409.6-409.6 409.6 183.7056 409.6 409.6S737.8944 773.12 512 773.12zM512 5.12c-197.632 0-358.4 160.768-358.4 358.4s160.768 358.4 358.4 358.4 358.4-160.768 358.4-358.4S709.632 5.12 512 5.12zM556.032 565.248 390.144 565.248l0-409.6 51.2 0L441.344 309.248l114.688 0c74.752 0 114.3808 54.6816 118.784 132.4032C671.8464 513.536 632.32 565.248 556.032 565.248zM536.2688 360.448 441.344 360.448 441.344 514.048l97.0752 0c54.272 0 81.408-30.6176 81.408-74.6496C619.8272 391.0656 591.9744 360.448 536.2688 360.448z"  horiz-adv-x="1024" />

    
    <glyph glyph-name="shixintaoxin" unicode="&#58939;" d="M736.064853 789.72928c-110.639787 0-189.91104-99.710293-224.078506-152.446293-34.194773 52.736-113.41824 152.446293-224.07168 152.446293C129.140053 789.72928 0 646.642347 0 470.77376c0-82.213547 55.773867-200.116907 123.487573-261.802667C217.14944 88.623787 480.453973-128 512.969387-128c33.082027 0 290.73408 212.411733 386.095786 335.517013C967.959893 270.308693 1024 388.355413 1024 470.77376c0 175.868587-129.14688 318.95552-287.935147 318.95552z"  horiz-adv-x="1024" />

    
    <glyph glyph-name="yuganganzhuang" unicode="&#59021;" d="M765.789091 591.538424c-2.110061 8.921212-4.282182 19.308606-7.113697 29.509818-1.241212 4.483879-6.516364 6.725818-10.930424 5.771637-4.708848-1.024-8.649697-5.376-7.780849-10.100364 1.885091-10.255515 4.204606-20.44897 6.888727-30.518303 1.217939-4.57697 6.268121-6.873212 10.759758-6.027636 4.770909 0.892121 8.192 5.034667 8.176485 11.364848zM718.809212 581.585455c-2.133333 8.905697-4.344242 19.456-7.284364 29.796848-1.24897 4.390788-6.795636 6.454303-11.132121 5.313939-4.708848-1.241212-8.339394-5.639758-7.424-10.387394 1.931636-10.077091 4.196848-20.115394 6.865455-30.021818 1.287758-4.763152 6.562909-7.13697 11.186424-6.081939 4.507152 1.024 7.742061 5.073455 7.788606 11.380364zM766.999273 542.851879c-4.755394-0.892121-8.168727-5.034667-8.16097-11.380364 2.102303-8.921212 4.266667-19.308606 7.090424-29.517576 1.241212-4.483879 6.500848-6.741333 10.922667-5.779394 4.716606 1.024 8.67297 5.383758 7.811879 10.092607a395.302788 395.302788 0 0 1-6.904243 30.52606c-1.217939 4.561455-6.291394 6.904242-10.759757 6.058667zM671.922424 481.039515c1.217939-4.507152 6.454303-6.795636 10.868364-5.880242 4.716606 0.977455 8.083394 5.197576 7.982545 11.55103-2.110061 8.874667-4.274424 19.269818-7.136969 29.463273-1.256727 4.460606-6.586182 6.609455-11.015758 5.577697-4.724364-1.101576-8.548848-5.469091-7.656727-10.201212 1.931636-10.247758 4.243394-20.44897 6.958545-30.510546zM671.581091 570.980848a774.950788 774.950788 0 0 1-6.11297 27.151516c-1.194667 4.910545-5.081212 7.827394-9.665939 7.842909-5.965576 0.015515-10.938182-5.244121-9.805576-11.209697 1.815273-9.596121 4.026182-19.130182 6.469818-28.594424a9.596121 9.596121 0 0 1 11.589818-6.935273 9.921939 9.921939 0 0 1 7.524849 11.744969zM729.863758 486.190545c4.716606 1.031758 8.665212 5.391515 7.804121 10.092607a403.238788 403.238788 0 0 1-6.888727 30.518303c-1.210182 4.553697-6.275879 6.896485-10.759758 6.058666-4.732121-0.876606-8.184242-5.057939-8.168727-11.395879 2.102303-8.890182 4.282182-19.277576 7.105939-29.478787 1.225697-4.468364 6.516364-6.749091 10.907152-5.79491zM1283.956364 312.707879c-3.801212 5.329455-9.262545 6.345697-15.414303 6.337939-246.318545-0.054303-492.644848-0.046545-738.963394-0.077576-3.467636 0-5.926788-0.449939-5.919031 4.895031 0.201697 118.163394 0.108606 236.31903 0.186182 354.482424 0.023273 35.141818 26.049939 63.643152 61.184 67.428848 33.419636 3.607273 65.086061-19.820606 72.440243-53.434181 0.806788-3.669333 0.147394-5.220848-3.84-6.035394-14.010182-2.870303-27.958303-6.074182-41.883152-9.355637-8.657455-2.040242-13.312-9.549576-11.473454-18.137212 1.365333-6.337939 2.777212-12.675879 4.390787-18.959515 2.280727-8.874667 9.611636-13.28097 18.641455-11.279515 15.429818 3.421091 30.836364 6.919758 46.250667 10.402909 30.828606 6.958545 61.66497 13.886061 92.47806 20.906667 9.890909 2.249697 14.219636 9.371152 12.016485 19.386181-1.287758 5.849212-2.536727 11.706182-4.010667 17.508849-2.350545 9.254788-9.541818 13.637818-18.850909 11.589818-12.668121-2.78497-25.390545-5.391515-37.957818-8.587636-4.739879-1.202424-6.36897-0.54303-7.478303 4.545939-11.085576 50.812121-55.497697 88.560485-107.248485 91.523879a117.643636 117.643636 0 0 1-124.687515-117.853091c-0.007758-117.829818-0.03103-235.651879 0.108606-353.481697 0.007758-4.646788-1.272242-5.678545-5.725091-5.624242-20.495515 0.240485-40.998788 0.124121-61.494303 0.100848-10.814061-0.015515-16.818424-5.926788-16.880485-16.546909-0.038788-5.833697-0.054303-11.667394 0.007758-17.501091 0.108606-9.728 6.229333-15.848727 15.980606-15.926303 8.168727-0.069818 16.337455-0.100848 24.498424 0.03103 2.963394 0.046545 4.243394-0.147394 3.731394-3.964121-6.198303-46.297212 0.302545-90.779152 21.271273-132.576969 30.161455-60.121212 77.831758-99.917576 142.258424-119.443394 3.211636-0.977455 4.491636-2.133333 4.352-5.694061-0.325818-8.323879-0.193939-16.663273-0.077576-24.994909 0.124121-8.897939 6.252606-15.150545 15.034182-15.336727 6.663758-0.139636 13.335273-0.155152 19.999031 0.007757 8.541091 0.201697 14.692848 6.4 14.902303 14.964364 0.139636 5.833697 0.380121 11.690667-0.077576 17.493333-0.372364 4.739879 1.342061 5.608727 5.740606 5.60097 118.49697-0.124121 236.986182-0.093091 355.483151-0.093091 0.667152 0 1.349818-0.085333 2.001455 0.015515 2.963394 0.442182 4.103758-0.535273 3.971879-3.762424a304.143515 304.143515 0 0 1-0.046546-18.998303c0.170667-8.851394 6.330182-15.041939 15.150546-15.228121 6.167273-0.124121 12.334545-0.062061 18.49406-0.023273 10.115879 0.069818 16.221091 6.097455 16.306425 16.112485 0.062061 7.501576 0.318061 15.018667-0.108606 22.489212-0.232727 4.06497 1.419636 5.267394 4.92606 6.260363 69.864727 19.805091 120.211394 62.727758 150.427152 128.67491 18.649212 40.719515 23.58303 83.634424 17.18303 127.930181 0.682667 0.294788 0.837818 0.411152 0.985212 0.411152 9.665939 0.046545 19.331879 0.093091 28.990061 0.100848 5.368242 0.007758 9.728 2.009212 12.83103 6.431031 4.119273 5.864727 4.041697 31.503515-0.085333 37.282909z m-157.843394-219.345455c-26.189576-21.907394-57.010424-33.892848-90.81794-38.221576-2.459152-0.318061-4.988121-0.139636-7.478303-0.139636-123.663515-0.007758-247.32703 0.186182-370.990545-0.147394-29.129697-0.077576-56.133818 7.012848-81.159758 21.108364-53.123879 29.92097-83.991273 75.48897-92.532363 135.881697-2.513455 17.749333-1.667879 35.55297 1.442909 53.248 0.566303 3.227152 1.691152 4.033939 4.763151 3.971879 8.828121-0.186182 17.664-0.069818 26.499879-0.069819h321.993697c115.828364 0 231.664485-0.007758 347.492848 0.046546 3.335758 0 5.228606-0.201697 5.849213-4.452849 10.131394-69.213091-11.527758-126.440727-65.062788-171.225212z"  horiz-adv-x="1675" />

    
    <glyph glyph-name="fanhui" unicode="&#58889;" d="M305.519192 338.359596c-11.636364 0-23.40202 4.39596-32.323232 13.317172-17.842424 17.842424-17.842424 46.674747 0 64.517171L683.830303 826.69899c17.842424 17.842424 46.674747 17.842424 64.517172 0 17.842424-17.842424 17.842424-46.674747 0-64.517172L337.713131 351.676768c-8.921212-8.921212-20.557576-13.317172-32.193939-13.317172z m0 0M715.894949-72.145455c-11.636364 0-23.40202 4.39596-32.323232 13.317172L273.19596 351.676768c-17.842424 17.842424-17.842424 46.674747 0 64.517171 17.842424 17.842424 46.674747 17.842424 64.517171 0l410.505051-410.50505c17.842424-17.842424 17.842424-46.674747 0-64.517172-8.921212-8.921212-20.557576-13.317172-32.323233-13.317172z m0 0"  horiz-adv-x="1024" />

    
    <glyph glyph-name="yijia" unicode="&#58903;" d="M926.9 179.7c-40.1 27.4-342 211.2-398.1 245.3v57.8c54 8.2 95.5 54.9 95.5 111.2 0 62-50.5 112.4-112.5 112.4S399.4 656 399.4 594c0-9.6 1.2-19.1 3.6-28.4 2.3-9.1 11.6-14.5 20.7-12.2 9.1 2.3 14.6 11.6 12.2 20.7-1.7 6.5-2.5 13.2-2.5 19.9 0 43.3 35.2 78.5 78.5 78.5s78.5-35.2 78.5-78.5-35.2-78.5-78.5-78.5c-9.4 0-17-7.6-17-17V425c-47.2-28.7-357.3-217.3-398.1-245.3-26.2-17.9-38-46.3-30-72.1 6.9-22.4 31.2-46.3 78.7-46.3h732.8c47.5 0 71.7 23.9 78.7 46.3 7.9 25.9-3.9 54.2-30.1 72.1z m-2.5-62.1c-4.3-13.8-22-22.3-46.2-22.3H145.4c-24.2 0-41.9 8.6-46.2 22.3-3.6 11.5 2.8 24.6 16.7 34 39.2 26.8 345.2 213 396 243.8 58.2-35.4 356.7-217 395.8-243.8 13.9-9.4 20.2-22.5 16.7-34z"  horiz-adv-x="1024" />

    
    <glyph glyph-name="tubiaoCSban-" unicode="&#58890;" d="M897.6 586.9c0 122.7-99.9 222.6-222.6 222.6-19.6 0-39.1-2.6-57.8-7.6l-0.3-0.1-429.8-89.5h-50.7c-5.5 0-10-4.5-10-10v-230.8c0-5.5 4.5-10 10-10h50.7l289.7-60.4c42.9-8.9 79-36.5 99-74.9H567c-3.2 0-6.3-1.6-8.2-4.2s-2.3-6-1.3-9.1c6.3-18 9.6-36.9 9.6-56 0-19.2-3.2-38-9.6-56-1.1-3.1-0.6-6.5 1.3-9.1s4.9-4.2 8.2-4.2h25.1v-122.3c0-0.6 0.1-1.2 0.2-1.8 2.5-30.1 36.8-54 80.7-57.2V-29c0-5.5 4.5-10 10-10s10 4.5 10 10v35.3c43.9 3.2 78.2 27.1 80.7 57.2 0.1 0.6 0.2 1.2 0.2 1.8v175c0 73.3 25.1 145.3 70.8 202.6 34.1 40.2 52.9 91.3 52.9 144zM621.3 782.3c0.2 0 0.4 0.1 0.5 0.1l0.6 0.2c17.1 4.6 34.8 6.9 52.6 6.9 111.7 0 202.6-90.9 202.6-202.6 0-48-17.1-94.6-48.2-131.2l-0.2-0.2c-0.6-0.7-1.2-1.3-1.8-2-0.6-0.7-1.3-1.5-1.9-2.2-0.6-0.7-1.3-1.4-1.9-2-0.6-0.7-1.3-1.4-1.9-2-0.7-0.7-1.3-1.4-2-2-0.6-0.6-1.2-1.3-1.9-1.9-0.7-0.7-1.4-1.4-2.1-2-0.6-0.6-1.2-1.2-1.9-1.8-0.7-0.7-1.5-1.4-2.2-2-0.6-0.6-1.2-1.1-1.8-1.7-0.8-0.7-1.5-1.3-2.3-2-0.6-0.5-1.2-1.1-1.8-1.6-0.8-0.7-1.6-1.3-2.4-2l-1.8-1.5c-0.8-0.7-1.7-1.3-2.5-2-0.6-0.5-1.2-0.9-1.8-1.4-0.9-0.7-1.7-1.3-2.6-1.9-0.6-0.4-1.2-0.9-1.8-1.3-0.9-0.6-1.8-1.3-2.7-1.9l-1.8-1.2c-0.9-0.6-1.9-1.2-2.8-1.8l-1.8-1.2c-1-0.6-1.9-1.2-2.9-1.8-0.6-0.4-1.2-0.7-1.7-1.1-1-0.6-2-1.2-3-1.7-0.6-0.3-1.1-0.7-1.7-1-1-0.6-2-1.1-3-1.7-0.6-0.3-1.2-0.6-1.7-1-1-0.5-2.1-1.1-3.1-1.6-0.6-0.3-1.2-0.6-1.7-0.9-1.1-0.5-2.1-1-3.2-1.5-0.6-0.3-1.1-0.6-1.7-0.8l-3.3-1.5c-0.6-0.2-1.1-0.5-1.7-0.7-1.1-0.5-2.2-0.9-3.3-1.4-0.6-0.2-1.1-0.5-1.7-0.7-1.1-0.4-2.2-0.9-3.4-1.3-0.6-0.2-1.1-0.4-1.7-0.7-1.1-0.4-2.3-0.8-3.4-1.2-0.6-0.2-1.1-0.4-1.7-0.6-1.1-0.4-2.3-0.7-3.4-1.1-0.6-0.2-1.2-0.4-1.7-0.6-1.1-0.3-2.3-0.7-3.4-1-0.6-0.2-1.2-0.4-1.8-0.5-1.1-0.3-2.3-0.6-3.4-0.9-0.6-0.2-1.2-0.3-1.8-0.5-1.1-0.3-2.3-0.5-3.4-0.8-0.6-0.1-1.3-0.3-1.9-0.4-1.1-0.3-2.3-0.5-3.4-0.7-0.6-0.1-1.3-0.3-1.9-0.4l-3.3-0.6c-0.7-0.1-1.4-0.3-2.1-0.4-1.1-0.2-2.3-0.4-3.4-0.5-0.7-0.1-1.3-0.2-2-0.3-1.1-0.2-2.2-0.3-3.3-0.4l-2.1-0.3c-1.1-0.1-2.1-0.2-3.2-0.3-0.8-0.1-1.5-0.2-2.3-0.2-1.1-0.1-2.2-0.2-3.3-0.2-0.7 0-1.5-0.1-2.2-0.2-1.2-0.1-2.5-0.1-3.7-0.2-0.6 0-1.2-0.1-1.9-0.1-1.9-0.1-3.7-0.1-5.6-0.1-17.8 0-35.6 2.3-52.7 6.9l-0.6 0.1c-0.2 0-0.4 0.1-0.5 0.1l-140.4 29.2-282.7 58.9V694.2l422.9 88.1z m-474.9-90h31.8v-210.8h-31.8V692.3z m434.2-386.1h21v-98.7h-21.1c4.3 16.1 6.5 32.6 6.5 49.3 0.1 16.8-2.1 33.4-6.4 49.4z m153.5-267.3c-13.6-8.3-31.8-12.9-51.1-12.9s-37.5 4.6-51.1 12.9c-7.8 4.8-13.5 10.4-16.7 16.4h135.6c-3.1-6-8.8-11.7-16.7-16.4zM754 240.3v-165.1H612.2V187.6h0.8c0.2 0 0.3 0 0.5 0.1 0.2 0 0.3 0.1 0.5 0.1s0.3 0.1 0.5 0.1c0.1 0 0.3 0.1 0.4 0.1 0.2 0.1 0.3 0.1 0.5 0.2 0.1 0.1 0.3 0.1 0.4 0.2 0.2 0.1 0.3 0.1 0.5 0.2 0.1 0.1 0.3 0.1 0.4 0.2 0.2 0.1 0.3 0.2 0.5 0.3 0.1 0.1 0.2 0.2 0.4 0.2 0.1 0.1 0.3 0.2 0.4 0.3l0.3 0.3c0.1 0.1 0.3 0.2 0.4 0.4l0.3 0.3c0.1 0.1 0.2 0.3 0.4 0.4l0.3 0.3c0.1 0.1 0.2 0.3 0.3 0.4 0.1 0.1 0.2 0.2 0.2 0.3 0.1 0.2 0.2 0.3 0.3 0.5 0.1 0.1 0.1 0.2 0.2 0.3 0.1 0.2 0.2 0.3 0.2 0.5 0.1 0.1 0.1 0.2 0.2 0.4s0.1 0.4 0.2 0.5c0 0.1 0.1 0.2 0.1 0.4 0.1 0.2 0.1 0.4 0.1 0.6 0 0.1 0.1 0.2 0.1 0.4s0.1 0.4 0.1 0.7v0.3c0 0.3 0.1 0.7 0.1 1V316.2c0 5.5-4.5 10-10 10H598c-10.2 23-25.3 43-44 58.8l62.9-13.1 0.3-0.1c18.8-5 38.2-7.6 57.8-7.6 1.8 0 3.6 0 5.5 0.1h1.2c1.8 0.1 3.6 0.1 5.3 0.2h0.7c1.6 0.1 3.2 0.2 4.9 0.3 0.4 0 0.7 0.1 1.1 0.1 1.8 0.1 3.5 0.3 5.3 0.5 0.3 0 0.7 0.1 1 0.1l4.8 0.6c0.3 0 0.5 0.1 0.8 0.1 1.8 0.2 3.5 0.5 5.3 0.8 0.4 0.1 0.7 0.1 1.1 0.2l5.1 0.9h0.2c1.8 0.3 3.5 0.7 5.3 1.1 0.4 0.1 0.7 0.2 1.1 0.2 1.7 0.4 3.5 0.8 5.2 1.2 0.1 0 0.2 0.1 0.4 0.1 1.7 0.4 3.3 0.9 4.9 1.3 0.3 0.1 0.7 0.2 1 0.3l5.1 1.5c0.3 0.1 0.5 0.2 0.8 0.2 1.6 0.5 3.1 1 4.7 1.5 0.3 0.1 0.5 0.2 0.8 0.3 1.7 0.6 3.4 1.2 5 1.8l0.9 0.3 4.8 1.8c0.1 0 0.2 0.1 0.4 0.1 1.7 0.7 3.3 1.3 5 2 0.3 0.1 0.7 0.3 1 0.4 1.6 0.7 3.3 1.4 4.9 2.2h0.1c1.6 0.7 3.2 1.5 4.8 2.3 0.3 0.2 0.7 0.3 1 0.5 1.6 0.8 3.1 1.6 4.7 2.4 0.2 0.1 0.4 0.2 0.7 0.4 1.4 0.8 2.8 1.5 4.2 2.3 0.3 0.2 0.6 0.3 0.9 0.5 1.5 0.9 3 1.7 4.5 2.6 0.3 0.2 0.6 0.4 0.9 0.5 0.6 0.3 1.2 0.7 1.7 1C767.1 349 754 295 754 240.3zM573.8 483.4c0.3-0.3 0.5-0.6 0.8-0.9s0.6-0.6 0.9-0.8c26.7-26.2 63.2-42.4 103.5-42.4s76.8 16.2 103.5 42.4c0.3 0.3 0.6 0.5 0.9 0.8s0.6 0.6 0.8 0.9c26.2 26.7 42.4 63.2 42.4 103.5s-16.2 76.8-42.4 103.5c-0.3 0.3-0.5 0.6-0.8 0.9-0.3 0.3-0.6 0.6-0.9 0.8-26.7 26.2-63.2 42.4-103.5 42.4s-76.8-16.2-103.5-42.4c-0.3-0.3-0.6-0.5-0.9-0.8-0.3-0.3-0.6-0.6-0.8-0.9-26.2-26.7-42.4-63.2-42.4-103.5s16.2-76.8 42.4-103.5z m8.2 186.4l72.9-72.9H551.7c2.2 27.7 13.2 52.9 30.3 72.9z m224.2-72.9H703.1l72.9 72.9c17.1-20 28.1-45.2 30.2-72.9zM776 504l-72.9 72.9h103.1c-2.1-27.7-13.1-52.9-30.2-72.9z m-107-44.4c-27.7 2.2-52.9 13.2-72.9 30.2l72.9 72.9v-103.1z m20 103.2l72.9-72.9c-19.9-17.1-45.2-28.1-72.9-30.2V562.8z m0 48.2V714.2c27.7-2.2 52.9-13.2 72.9-30.2L689 611z m-20 0l-72.9 72.9C616 701 641.3 712 669 714.1V611z m-14.1-34.1L582 504c-17.1 19.9-28.1 45.2-30.2 72.9h103.1z"  horiz-adv-x="1024" />

    
    <glyph glyph-name="shuzhuo" unicode="&#58888;" d="M178.7-9.4h-21.9c-11.3 0-20.4 9.2-20.4 20.4V272.7h15.7V11c0-2.6 2.1-4.7 4.7-4.7h21.9c2.6 0 4.7 2.1 4.7 4.7V272.7h15.7V11c0-11.3-9.1-20.4-20.4-20.4zM528.2 492.1H453l5.3 6.4c17 20.6 10.2 46.3 4.6 59.9l7.2 3c5.7-13.8 12.5-39.1-1.2-61.4h52.9c-5.7 11.8-16 38.7-5.4 61.5l7.1-3.3c-12-25.7 7.9-59.8 8.1-60.1l3.5-5.9h-6.9zM837-9.4h-21.9c-11.3 0-20.4 9.2-20.4 20.4V271.4h15.7V11c0-2.6 2.1-4.7 4.7-4.7H837c2.6 0 4.7 2.1 4.7 4.7V271.4h15.7V11c0-11.3-9.2-20.4-20.4-20.4zM900.5 264.9H101.2V460.8h15.6v-180.3h768V460.8h15.7zM924 456.9H77.6v47H924v-47zM93.3 472.5h815v15.7h-815v-15.7zM473.9 292.3H151.6c-12.7 0-23 10.3-23 23V418.2c0 12.7 10.3 23 23 23h322.3c12.7 0 23-10.3 23-23v-102.9c0-12.7-10.3-23-23-23zM151.6 433.4c-8.4 0-15.2-6.8-15.2-15.2v-102.9c0-8.4 6.8-15.2 15.2-15.2h322.3c8.4 0 15.2 6.8 15.2 15.2V418.2c0 8.4-6.8 15.2-15.2 15.2H151.6zM849.1 292.3H528.7c-13.2 0-24 10.8-24 24V417.2c0 13.2 10.8 24 24 24H849c13.2 0 24-10.8 24-24v-100.9c0.1-13.2-10.7-24-23.9-24zM528.7 433.4c-8.9 0-16.2-7.3-16.2-16.2v-100.9c0-8.9 7.2-16.2 16.2-16.2H849c8.9 0 16.2 7.3 16.2 16.2V417.2c0 8.9-7.2 16.2-16.2 16.2H528.7zM442 374.6m-7.8 0a7.8 7.8 0 1 1 15.6 0 7.8 7.8 0 1 1-15.6 0ZM442 364.8c-5.4 0-9.8 4.4-9.8 9.8s4.4 9.8 9.8 9.8 9.8-4.4 9.8-9.8-4.3-9.8-9.8-9.8z m0 15.7c-3.2 0-5.9-2.6-5.9-5.9s2.6-5.9 5.9-5.9c3.2 0 5.9 2.6 5.9 5.9s-2.6 5.9-5.9 5.9zM628.3 556.8H373.6c-9.7 0-17.6 7.9-17.6 17.6V750.7c0 9.7 7.9 17.6 17.6 17.6h254.7c9.7 0 17.6-7.9 17.6-17.6v-176.3c0.1-9.7-7.9-17.6-17.6-17.6zM373.6 760.5c-5.4 0-9.8-4.4-9.8-9.8v-176.3c0-5.4 4.4-9.8 9.8-9.8h254.7c5.4 0 9.8 4.4 9.8 9.8V750.7c0 5.4-4.4 9.8-9.8 9.8H373.6zM551.8 374.6m-7.8 0a7.8 7.8 0 1 1 15.6 0 7.8 7.8 0 1 1-15.6 0ZM551.8 364.8c-5.4 0-9.8 4.4-9.8 9.8s4.4 9.8 9.8 9.8 9.8-4.4 9.8-9.8-4.4-9.8-9.8-9.8z m0 15.7c-3.2 0-5.9-2.6-5.9-5.9s2.6-5.9 5.9-5.9c3.2 0 5.9 2.6 5.9 5.9s-2.7 5.9-5.9 5.9zM861.3 492.1h-7.8v27.5H673.2v-27.5h-7.8v35.3h195.9zM614.9 570.5H387c-9.5 0-17.3 7.8-17.3 17.3V737.3c0 9.6 7.8 17.3 17.3 17.3h227.9c9.5 0 17.3-7.8 17.3-17.3v-149.5c0-9.5-7.7-17.3-17.3-17.3zM387 750.7c-7.4 0-13.4-6-13.4-13.4v-149.5c0-7.4 6-13.4 13.4-13.4h227.9c7.4 0 13.4 6 13.4 13.4V737.3c0 7.4-6 13.4-13.4 13.4H387zM418.5 727.2l-31.3-31.3M387.2 693.9c-0.5 0-1 0.2-1.4 0.6-0.8 0.8-0.8 2 0 2.8l31.3 31.3c0.8 0.8 2 0.8 2.8 0 0.8-0.8 0.8-2 0-2.8l-31.3-31.3c-0.4-0.4-0.9-0.6-1.4-0.6zM418.5 695.9l-31.3-31.4M387.2 662.6c-0.5 0-1 0.2-1.4 0.6-0.8 0.8-0.8 2 0 2.8l31.3 31.3c0.8 0.8 2 0.8 2.8 0s0.8-2 0-2.8l-31.3-31.3c-0.4-0.4-0.9-0.6-1.4-0.6z"  horiz-adv-x="1024" />

    
    <glyph glyph-name="daocha" unicode="&#58892;" d="M358.4-12.8h-52.48c-17.92 0-33.28 15.36-33.28 34.56V364.8c-48.64 15.36-79.36 47.36-79.36 83.2V750.08c0 16.64 15.36 30.72 33.28 30.72h12.8c17.92 0 33.28-14.08 33.28-30.72v-181.76h19.2V750.08c0 16.64 15.36 30.72 33.28 30.72h12.8c17.92 0 33.28-14.08 33.28-30.72v-181.76h19.2V750.08c0 16.64 15.36 30.72 33.28 30.72h12.8c17.92 0 33.28-14.08 33.28-30.72V448c0-37.12-30.72-69.12-79.36-83.2v-343.04c1.28-19.2-14.08-34.56-32-34.56z m-131.84 768c-5.12 0-7.68-2.56-7.68-5.12V448c0-26.88 28.16-51.2 70.4-61.44 5.12-1.28 10.24-6.4 10.24-12.8v-353.28c0-5.12 3.84-8.96 7.68-8.96h51.2c3.84 0 7.68 3.84 7.68 8.96V375.04c0 6.4 3.84 11.52 10.24 12.8 42.24 10.24 70.4 35.84 70.4 61.44v300.8c0 2.56-3.84 5.12-7.68 5.12h-12.8c-5.12 0-7.68-2.56-7.68-5.12v-194.56c0-7.68-5.12-12.8-12.8-12.8h-44.8c-7.68 0-12.8 5.12-12.8 12.8V750.08c0 2.56-2.56 5.12-7.68 5.12h-12.8c-5.12 0-7.68-2.56-7.68-5.12v-194.56c0-7.68-5.12-12.8-12.8-12.8h-44.8c-7.68 0-12.8 5.12-12.8 12.8V750.08c0 2.56-2.56 5.12-7.68 5.12h-15.36zM723.2-12.8h-47.36c-17.92 0-33.28 15.36-33.28 34.56v249.6H601.6c-16.64 0-30.72 15.36-30.72 34.56V604.16c0 90.88 65.28 166.4 153.6 175.36h1.28c17.92 0 32-15.36 32-34.56V19.2c-1.28-16.64-16.64-32-34.56-32z m2.56 768c-74.24-8.96-129.28-72.96-129.28-151.04v-298.24c0-5.12 2.56-8.96 5.12-8.96h53.76c7.68 0 12.8-5.12 12.8-12.8v-263.68c0-5.12 3.84-8.96 7.68-8.96h47.36c3.84 0 7.68 3.84 7.68 8.96V746.24c0 5.12-2.56 8.96-5.12 8.96z"  horiz-adv-x="1024" />

    
    <glyph glyph-name="xiyiji" unicode="&#58909;" d="M845.3-48.7h-668c-31.4 0-57 25.6-57 57v751c0 31.4 25.6 57 57 57h668c31.4 0 57-25.6 57-57v-751c0-31.5-25.5-57-57-57z m-668 831c-12.7 0-23-10.3-23-23v-751c0-12.7 10.3-23 23-23h668c12.7 0 23 10.3 23 23v751c0 12.7-10.3 23-23 23h-668zM510.8 33.3c-69.8 0-135.5 27.2-184.9 76.6-49.4 49.4-76.6 115.1-76.6 184.9 0 69.8 27.2 135.5 76.6 184.9 49.4 49.4 115.1 76.6 184.9 76.6s135.5-27.2 184.9-76.6c49.4-49.4 76.6-115.1 76.6-184.9 0-69.8-27.2-135.5-76.6-184.9s-115-76.6-184.9-76.6z m0 489c-60.8 0-117.9-23.7-160.9-66.6-43-43-66.6-100.1-66.6-160.9S307 176.9 350 133.9s100.1-66.6 160.9-66.6c60.8 0 117.9 23.7 160.9 66.6s66.6 100.1 66.6 160.9-23.7 117.9-66.6 160.9c-43.1 42.9-100.2 66.6-161 66.6zM756.3 704.3m-26 0a26 26 0 1 1 52 0 26 26 0 1 1-52 0ZM137.3 638.3h748v-34h-748zM635.3 687.3h-239c-9.4 0-17 7.6-17 17s7.6 17 17 17h239c9.4 0 17-7.6 17-17s-7.6-17-17-17zM292.3 687.3h-72c-9.4 0-17 7.6-17 17s7.6 17 17 17h72c9.4 0 17-7.6 17-17s-7.6-17-17-17zM417.4 221.2c-62.9 0-95.2 33.1-123.7 62.2-11.4 11.7-22.2 22.7-34.7 31.7l19.9 27.6c14.8-10.7 27.2-23.3 39.1-35.5 27.2-27.9 50.8-52 99.3-52 48.6 0 72.1 24.1 99.3 52 28.5 29.2 60.8 62.2 123.7 62.2 62.9 0 95.2-33.1 123.7-62.2 1.3-1.3 2.6-2.7 3.9-4l-24.3-23.8c-1.3 1.3-2.6 2.7-4 4-27.2 27.9-50.7 52-99.3 52-48.6 0-72.1-24.1-99.3-52-28.4-29.2-60.7-62.2-123.6-62.2z"  horiz-adv-x="1024" />

    
    <glyph glyph-name="maojin" unicode="&#58930;" d="M561.4 80.5H262.9c-45.1 0-81.7 36.7-81.7 81.7V631.3c0 45.1 36.7 81.7 81.7 81.7h369.6c5.9 0 10.7-4.8 10.7-10.7v-540.1c-0.1-45-36.7-81.7-81.8-81.7zM262.9 691.7c-33.3 0-60.4-27.1-60.4-60.4v-469.1c0-33.3 27.1-60.4 60.4-60.4h298.5c33.3 0 60.4 27.1 60.4 60.4V691.7H262.9zM202.5 592.2h-95.9c-21.6 0-39.1 17.5-39.1 39.1s17.5 39.1 39.1 39.1h107.6l-6.6-15c-3.4-7.7-5.1-15.8-5.1-24.1v-39.1zM106.6 649c-9.8 0-17.8-8-17.8-17.8s8-17.8 17.8-17.8h74.6v17.8c0 6 0.7 12 2 17.8h-76.6zM923.8 592.2H632.5v21.3h291.4c9.8 0 17.8 8 17.8 17.8s-8 17.8-17.8 17.8H632.5v21.3h291.4c21.6 0 39.1-17.5 39.1-39.1-0.1-21.6-17.6-39.1-39.2-39.1zM632.5 30.7H312.7c-36.6 0-69 24.7-78.7 60.2l-5 18.1 18.1-5c5.3-1.5 10.7-2.2 15.9-2.2h298.5c33.3 0 60.4 27.1 60.4 60.4V613.5h92.4v-501c-0.1-45.1-36.8-81.8-81.8-81.8z m-371 49.8c10.9-17.3 30-28.4 51.1-28.4h319.8c33.3 0 60.4 27.1 60.4 60.4V592.2h-49.7v-430c0-45.1-36.7-81.7-81.7-81.7H261.5zM713.9 649h-92.1v64h10.7c32.3 0 61.7-19.2 74.8-49l6.6-15z m-70.8 21.4h35.3c-9 10.6-21.5 17.9-35.3 20.4v-20.4z"  horiz-adv-x="1024" />

    
    <glyph glyph-name="xifashui" unicode="&#58936;" d="M668.7 715.4H430.4c-14.5 0-25.9 11.4-25.9 25.9v30.6c0 14.5 11.4 25.9 25.9 25.9h238.3c14.5 0 25.9-11.4 25.9-25.9v-30.3c0.4-6.6-1.9-13-6.4-17.9-4.9-5.3-12-8.3-19.5-8.3z m-238.3 61.9c-3.2 0-5.4-2.2-5.4-5.4v-30.6c0-3.2 2.2-5.4 5.4-5.4h238.3c1.7 0 3.4 0.7 4.5 1.8 0.8 0.8 1.1 1.8 1 2.9V772c0 3.2-2.2 5.4-5.4 5.4H430.4zM532.5 635.7h-49.7V729h49.7v-93.3z m-29.2 20.4h8.9v52.4h-8.9v-52.4zM585 575.1H437.2v49c0 17.9 14.1 32 32 32H553c17.9 0 32-14.1 32-32v-49z m-127.4 20.4h106.9v28.6c0 6.6-5 11.6-11.6 11.6h-83.8c-6.6 0-11.6-5-11.6-11.6v-28.6zM634 462.7H388.2V569.6c0 14.3 11.6 25.9 25.9 25.9h194.1c14.3 0 25.9-11.6 25.9-25.9v-106.9z m-225.4 20.5h205v86.5c0 3.1-2.9 5.4-5.4 5.4H414c-3.1 0-5.4-2.9-5.4-5.4v-86.5zM651.7-33h-286c-52.6 0-95.3 42.8-95.3 95.3V366.7c0 64.2 52.2 116.4 116.4 116.4h264.9c64.2 0 116.4-52.2 116.4-116.4v-282.6c0.1-64.6-52.2-117.1-116.4-117.1zM386.8 462.7c-52.9 0-96-43.1-96-96v-304.4c0-41.3 33.6-74.9 74.9-74.9h286c52.9 0 96 43.4 96 96.7V366.7c0 52.9-43.1 96-96 96H386.8zM768.2 122.2h-271V259.8c0 37.5 30.6 68.1 68.1 68.1h202.9v-205.7z m-250.6 20.5h230.2V307.5H565.2c-26.3 0-47.7-21.4-47.7-47.7v-117.1z"  horiz-adv-x="1024" />

    
    <glyph glyph-name="ic_yun" unicode="&#58898;" d="M384 426.666667h469.333333c39.274667 0 71.111111-31.836444 71.111111-71.111111v-213.333334H99.555556c0 157.091556 127.352889 284.444444 284.444444 284.444445z m497.777778-241.777778V355.555556a28.444444 28.444444 0 0 1-28.444445 28.444444H384c-118.968889 0-217.870222-85.930667-238.023111-199.111111H881.777778zM647.111111 583.1111109999999H412.444444c-39.274667 0-71.111111 31.836444-71.111111 71.111111s31.836444 71.111111 71.111111 71.111111h327.111112c78.549333 0 142.222222-63.672889 142.222222-142.222222v-199.111111H654.222222V576a7.111111 7.111111 0 0 1-7.111111 7.111111z m49.777778-156.444444h142.222222V583.1111109999999c0 54.983111-44.572444 99.555556-99.555555 99.555556H412.444444a28.444444 28.444444 0 1 1 0-56.888889h234.666667a49.777778 49.777778 0 0 0 49.777778-49.777778v-149.333333z m0-163.555556v42.666667h227.555555v-42.666667H696.888889z m227.555555-177.777778l-42.666666-42.666666v42.666666h42.666666z m-42.666666 56.888889h42.666666v-99.555555H99.555556v99.555555h42.666666v-56.888889h739.555556v56.888889zM142.222222 42.66666699999996l-42.666666 42.666666h42.666666v-42.666666z m0 0l-42.666666 42.666666h42.666666v-42.666666z m739.555556 42.666666v56.888889h42.666666v-99.555555H99.555556v99.555555h42.666666v-56.888889h739.555556z m42.666666 0l-42.666666-42.666666v42.666666h42.666666z m-156.444444 384a28.444444 28.444444 0 1 0 0 56.888889 28.444444 28.444444 0 0 0 0-56.888889z"  horiz-adv-x="1024" />

    
    <glyph glyph-name="snow" unicode="&#59342;" d="M775.4 260.79999999999995l121.5-70.2-25-43.3-121.5 70.2 30.4-113.3-48.3-12.9-43.3 161.6L537 340.70000000000005V165l118.3-118.3-35.3-35.3-83 83V-46h-50V94.29999999999995l-83-83-35.4 35.4L487 165V340.70000000000005l-151.6-87.5-43.3-161.6-48.3 12.9 30.4 113.3-122.1-70.5-25 43.3 122.1 70.5-113.3 30.4 12.9 48.3 161.6-43.3L462 384l-151.6 87.5-161.6-43.3-12.9 48.3 113.3 30.4-122.1 70.5 25 43.3 122.1-70.5-30.4 113.3 48.3 12.9 43.3-161.6L487 427.3v175L368.7 720.6 404 756l83-83V814h50v-141l83 83 35.4-35.4L537 602.3v-175l152.1 87.8 43.3 161.6 48.3-12.9-30.4-113.3 121.5 70.2 25-43.3-121.5-70.2 113.3-30.4-12.9-48.3-161.6 43.3L562 384l152.1-87.8 161.6 43.3 12.9-48.3-113.2-30.4z"  horiz-adv-x="1024" />

    
    <glyph glyph-name="yanwubaojingqi" unicode="&#60536;" d="M512 832C264.96 832 64 631.04 64 384s200.96-448 448-448 448 200.96 448 448S759.04 832 512 832z m0-832C300.256 0 128 172.25599999999997 128 384S300.256 768 512 768s384-172.256 384-384-172.256-384-384-384zM404.96 125.56799999999998a278.208 278.208 0 0 0-90.688 60.672 278.432 278.432 0 0 0-60.704 90.72 32 32 0 0 1-59.136-24.512 341.6 341.6 0 0 1 74.592-111.456 342.176 342.176 0 0 1 111.456-74.56 31.936 31.936 0 0 1 41.792 17.312 31.968 31.968 0 0 1-17.312 41.824zM211.744 473.728a31.872 31.872 0 0 1 41.824 17.28 278.08 278.08 0 0 0 60.704 90.72 278.304 278.304 0 0 0 90.688 60.704 32 32 0 0 1-24.512 59.136 342.016 342.016 0 0 1-111.456-74.56 342.144 342.144 0 0 1-74.56-111.488 32 32 0 0 1 17.312-41.792zM619.04 642.432a278.784 278.784 0 0 0 90.72-60.704 278.56 278.56 0 0 0 60.672-90.688 32 32 0 1 1 59.136 24.512 342.176 342.176 0 0 1-74.56 111.456 342.432 342.432 0 0 1-111.456 74.592 32.032 32.032 0 0 1-24.512-59.168zM812.256 294.27200000000005a32.096 32.096 0 0 1-41.824-17.312 278.336 278.336 0 0 0-60.672-90.72 278.336 278.336 0 0 0-90.72-60.672 32 32 0 0 1 24.512-59.136 342.176 342.176 0 0 1 111.456 74.56 342.848 342.848 0 0 1 74.56 111.456 32 32 0 0 1-17.312 41.824zM348.576 547.424a230.208 230.208 0 0 1-50.112-74.944 32 32 0 0 1 59.136-24.544 166.784 166.784 0 0 0 36.256 54.208 166.4 166.4 0 0 0 54.208 36.288 32.032 32.032 0 0 1-24.512 59.136 230.592 230.592 0 0 1-74.976-50.144zM575.968 538.432c20.288-8.416 38.528-20.64 54.176-36.256s27.84-33.888 36.288-54.208a32 32 0 1 1 59.136 24.544 230.816 230.816 0 0 1-50.144 74.944 230.4 230.4 0 0 1-74.944 50.112 32 32 0 1 1-24.512-59.136zM448.032 229.56799999999998a166.56 166.56 0 0 0-54.208 36.288 166.912 166.912 0 0 0-36.288 54.176 32 32 0 0 1-59.136-24.512 230.464 230.464 0 0 1 50.144-74.944 229.952 229.952 0 0 1 74.944-50.144 32 32 0 0 1 24.544 59.136zM675.392 220.60799999999995a230.144 230.144 0 0 1 50.144 74.944 32 32 0 1 1-59.136 24.512c-8.416-20.288-20.64-38.528-36.288-54.176s-33.92-27.872-54.176-36.288a32 32 0 1 1 24.512-59.136 228.96 228.96 0 0 1 74.944 50.144zM640 384c0 70.592-57.408 128-128 128s-128-57.408-128-128 57.408-128 128-128 128 57.408 128 128z m-128-64c-35.296 0-64 28.704-64 64s28.704 64 64 64 64-28.704 64-64-28.704-64-64-64z"  horiz-adv-x="1024" />

    
    <glyph glyph-name="dianshi-" unicode="&#58893;" d="M876 618.7c22.8 0 41.4-18.6 41.4-41.4v-514.6c0-22.8-18.6-41.4-41.4-41.4H148c-22.8 0-41.4 18.6-41.4 41.4V577.3c0 22.8 18.6 41.4 41.4 41.4h728m0 42.6H148c-46.4 0-84-37.6-84-84v-514.6c0-46.4 37.6-84 84-84h728c46.4 0 84 37.6 84 84V577.3c0 46.4-37.6 84-84 84zM670.5 512c6.7 0 12.2-5.5 12.2-12.2v-359.7c0-6.7-5.5-12.2-12.2-12.2h-445c-6.7 0-12.2 5.5-12.2 12.2V499.8c0 6.7 5.5 12.2 12.2 12.2h445m0 42.7h-445c-30.3 0-54.8-24.5-54.8-54.8v-359.7c0-30.3 24.5-54.8 54.8-54.8h445c30.3 0 54.8 24.5 54.8 54.8V499.8c0 30.3-24.5 54.9-54.8 54.9zM810.7 512c11.8 0 21.3-9.6 21.3-21.3s-9.6-21.3-21.3-21.3-21.3 9.6-21.3 21.3 9.5 21.3 21.3 21.3m0 42.7c-35.3 0-64-28.7-64-64s28.7-64 64-64 64 28.7 64 64-28.7 64-64 64zM810.7 341.3c11.8 0 21.3-9.6 21.3-21.3s-9.6-21.3-21.3-21.3-21.3 9.6-21.3 21.3 9.5 21.3 21.3 21.3m0 42.7c-35.3 0-64-28.7-64-64s28.7-64 64-64 64 28.7 64 64-28.7 64-64 64zM448 618.7c-5.5 0-11 2.1-15.1 6.2L262.2 795.6c-8.3 8.3-8.3 21.8 0 30.2s21.8 8.3 30.2 0L451.2 667l263 161.8c10 6.2 23.2 3 29.3-7 6.2-10 3-23.2-7-29.3L459.2 621.8c-3.5-2.1-7.3-3.1-11.2-3.1z"  horiz-adv-x="1024" />

    
    <glyph glyph-name="nuanqi" unicode="&#58910;" d="M874.666667 213.333333h-85.333334V554.666667h85.333334a21.333333 21.333333 0 0 1 0 42.666666h-85.333334V672a91.306667 91.306667 0 0 1-85.333333 96 80.64 80.64 0 0 1-64-33.28 78.08 78.08 0 0 1-128 0 78.08 78.08 0 0 1-128 0A80.64 80.64 0 0 1 320 768a91.306667 91.306667 0 0 1-85.333333-96V597.333333h-85.333334a21.333333 21.333333 0 0 1 0-42.666666h85.333334v-341.333334h-85.333334a21.333333 21.333333 0 0 1 0-42.666666h85.333334v-74.666667a91.306667 91.306667 0 0 1 85.333333-96 80.64 80.64 0 0 1 64 33.28 78.08 78.08 0 0 1 128 0 78.08 78.08 0 0 1 128 0 80.64 80.64 0 0 1 64-33.28 91.306667 91.306667 0 0 1 85.333333 96V170.666667h85.333334a21.333333 21.333333 0 0 1 0 42.666666z m-512-117.333333a46.08 46.08 0 0 0-42.666667-48.213333 46.08 46.08 0 0 0-42.666667 48.213333V672a46.08 46.08 0 0 0 42.666667 48.213333 46.08 46.08 0 0 0 42.666667-48.213333z m128 0a46.08 46.08 0 0 0-42.666667-48.213333 46.08 46.08 0 0 0-42.666667 48.213333V672a46.08 46.08 0 0 0 42.666667 48.213333 46.08 46.08 0 0 0 42.666667-48.213333z m128 0a46.08 46.08 0 0 0-42.666667-48.213333 46.08 46.08 0 0 0-42.666667 48.213333V672a46.08 46.08 0 0 0 42.666667 48.213333 46.08 46.08 0 0 0 42.666667-48.213333z m128 0a42.666667 42.666667 0 1 0-85.333334 0V672a42.666667 42.666667 0 1 0 85.333334 0z"  horiz-adv-x="1024" />

    
    <glyph glyph-name="dianti" unicode="&#58916;" d="M844.8 810.666667H179.2a8.533333 8.533333 0 0 1-8.533333-8.533334v-836.266666a8.533333 8.533333 0 0 1 8.533333-8.533334h665.6a8.533333 8.533333 0 0 1 8.533333 8.533334V802.133333a8.533333 8.533333 0 0 1-8.533333 8.533334zM213.333333 0V768h277.333334v-768z m597.333334 0h-277.333334V768H810.666667zM371.2 501.333333a25.6 25.6 0 0 1-38.4 0l-71.253333-81.493333a25.173333 25.173333 0 0 1 0-31.146667 17.066667 17.066667 0 0 1 27.306666 0l42.666667 47.786667v-157.44a21.333333 21.333333 0 0 1 42.666667 0v157.44l42.666666-47.786667a17.92 17.92 0 0 1 27.306667 0 25.173333 25.173333 0 0 1 0 31.146667zM652.8 266.666667a25.6 25.6 0 0 1 38.4 0l71.253333 81.493333a25.173333 25.173333 0 0 1 0 31.146667 17.066667 17.066667 0 0 1-27.306666 0l-42.666667-47.786667V488.96a21.333333 21.333333 0 0 1-42.666667 0v-157.44l-42.666666 47.786667a17.92 17.92 0 0 1-27.306667 0 25.173333 25.173333 0 0 1 0-31.146667z"  horiz-adv-x="1024" />

    
    <glyph glyph-name="yanwubaojingqi1" unicode="&#58914;" d="M640 384a128 128 0 1 1-128-128 128 128 0 0 1 128 128z m-128-85.333333a85.333333 85.333333 0 1 0 85.333333 85.333333 85.333333 85.333333 0 0 0-85.333333-85.333333zM738.986667 364.373333a18.346667 18.346667 0 0 1-21.333334-15.36 208.213333 208.213333 0 0 0-170.666666-170.666666 18.346667 18.346667 0 0 1-15.786667-18.346667v-3.413333a18.773333 18.773333 0 0 1 21.76-15.36A245.76 245.76 0 0 1 754.773333 341.333333a19.2 19.2 0 0 1-15.786666 23.04zM814.933333 373.76a19.2 19.2 0 0 1-20.48-17.066667 285.013333 285.013333 0 0 0-246.613333-256 18.346667 18.346667 0 0 1-16.64-18.773333v-2.133333a19.2 19.2 0 0 1 20.906667-16.64 323.413333 323.413333 0 0 1 279.893333 288.853333 19.626667 19.626667 0 0 1-17.066667 21.76zM287.573333 364.8h-3.413333a18.773333 18.773333 0 0 1-15.36-23.466667 245.76 245.76 0 0 1 200.533333-200.106666 19.2 19.2 0 0 1 21.76 15.786666 18.346667 18.346667 0 0 1-15.36 21.333334 208.213333 208.213333 0 0 0-170.666666 170.666666 18.346667 18.346667 0 0 1-17.493334 15.786667zM484.693333 101.546667a285.013333 285.013333 0 0 0-256 246.613333 18.346667 18.346667 0 0 1-18.773333 16.64h-1.28a19.2 19.2 0 0 1-16.64-20.906667 323.413333 323.413333 0 0 1 288.853333-279.893333 19.626667 19.626667 0 0 1 20.906667 17.066667 19.2 19.2 0 0 1-17.066667 20.48zM492.8 608.426667v3.413333A18.773333 18.773333 0 0 1 469.333333 627.2 245.76 245.76 0 0 1 269.226667 426.666667a19.2 19.2 0 0 1 15.786666-21.76 18.346667 18.346667 0 0 1 21.333334 15.36 208.213333 208.213333 0 0 0 170.666666 170.666666 18.346667 18.346667 0 0 1 15.786667 17.493334zM209.066667 394.24a19.2 19.2 0 0 1 20.48 17.066667 285.013333 285.013333 0 0 0 246.613333 256 18.346667 18.346667 0 0 1 16.64 18.773333v1.28a19.2 19.2 0 0 1-20.906667 16.64 323.413333 323.413333 0 0 1-279.893333-288.853333 19.626667 19.626667 0 0 1 17.066667-20.906667zM554.666667 626.773333a19.2 19.2 0 0 1-21.76-15.786666 18.346667 18.346667 0 0 1 15.36-21.333334 208.213333 208.213333 0 0 0 170.666666-170.666666 18.346667 18.346667 0 0 1 18.346667-15.786667h3.413333a18.773333 18.773333 0 0 1 14.506667 23.466667A245.76 245.76 0 0 1 554.666667 626.773333zM539.306667 666.453333a285.013333 285.013333 0 0 0 256-246.613333 18.346667 18.346667 0 0 1 18.773333-16.64h2.133333a19.2 19.2 0 0 1 16.64 20.906667 323.413333 323.413333 0 0 1-289.706666 279.893333 19.626667 19.626667 0 0 1-20.906667-17.066667 19.2 19.2 0 0 1 17.066667-20.48zM512 810.666667a426.666667 426.666667 0 1 1 426.666667-426.666667A426.666667 426.666667 0 0 1 512 810.666667z m0-810.666667a384 384 0 1 0 384 384 384 384 0 0 0-384-384z"  horiz-adv-x="1024" />

    
    <glyph glyph-name="xihuan" unicode="&#59196;" d="M536.70909131 737.78181826l-45 29.04545479A273.23181826 273.23181826 0 0 1 70.18181826 537.40909131c0-162.9 133.07727305-344.94545479 395.79545479-549.94090957a114.54545479 114.54545479 0 0 1 140.93181826 0c262.63636347 204.99545479 395.75454521 387.04090869 395.75454522 549.94090957a272.53636348 272.53636348 0 0 1-417.23181827 230.93181738l-48.72272695-30.55909043z m29.90454521-698.72727305a49.09090869 49.09090869 0 0 0-60.38181826 0C257.95454521 232.84090869 135.63636347 400.2 135.63636347 537.40909131a207.77727305 207.77727305 0 0 0 320.56363653 174.47727217l62.46818174-40.37727217 17.46818173-11.29090957 84.06818174 52.65a207.08181826 207.08181826 0 0 0 317.04545479-175.45909043c0-137.25-122.4-304.60909131-370.63636348-498.31363652z"  horiz-adv-x="1070" />

    
    <glyph glyph-name="huabanfuben" unicode="&#60289;" d="M928 139H805V804.34a25 25 0 0 1-25 25H274.82c-0.51 0-1-0.06-1.5-0.12h-0.15c-0.45 0-0.9-0.11-1.34-0.19h-0.22c-0.46-0.08-0.91-0.17-1.36-0.28h-0.1a24.69 24.69 0 0 1-4.41-1.52h-0.09a26.34 26.34 0 0 1-2.77-1.49h-0.06c-0.39-0.24-0.77-0.5-1.15-0.76l-0.27-0.19c-0.34-0.25-0.67-0.51-1-0.77l-0.18-0.14c-0.37-0.3-0.73-0.62-1.08-0.94l-0.29-0.28c-0.26-0.24-0.5-0.48-0.74-0.73l-0.34-0.35c-0.25-0.27-0.49-0.54-0.73-0.82l-0.21-0.24c-0.31-0.37-0.61-0.76-0.9-1.14a1 1 0 0 0-0.12-0.17c-0.25-0.35-0.49-0.7-0.72-1.06l-0.15-0.23c-0.25-0.39-0.49-0.79-0.71-1.2a24.91 24.91 0 0 1-1.34-2.81c-0.18-0.48-0.36-1-0.52-1.45a25.28 25.28 0 0 1-0.8-3v-0.09c-0.09-0.45-0.16-0.89-0.22-1.35v-0.34c-0.05-0.39-0.09-0.77-0.11-1.15V139H96.57a25 25 0 1 1 0-50h173.61l328.39-163a25 25 0 0 1 36.12 22.39V89H928a25 25 0 0 1 0 50zM584.69-11.3L301.05 129.54V764l283.64-140.83z m50 150.34V638.67a25 25 0 0 1-13.88 22.39l-238.2 118.28H755V139z"  horiz-adv-x="1024" />

    


  </font>
</defs>
</svg>
